# xmcd
#
# Track frame offsets:
#	150
#	20506
#	42277
#	62875
#	86544
#	107011
#	137644
#	151413
#	178486
#
# Disc length: 2887 seconds
#
# Revision: 0
# Processed by: cddbd v1.5.2PL0 Copyright (c) Steve Scherf et al.
# Submitted via: EZCDAudioConverter 1.2.3.1
#
DISCID=770b4509
DTITLE=By The Patient - Premonitions
DYEAR=2012
DGENRE=Death Metal
TTITLE0=A Distorted Mirror Image
TTITLE1=Hours Of Mist
TTITLE2=Veil Of Depression
TTITLE3=Where Time Collapsed
TTITLE4=Eyes
TTITLE5=Premonitions
TTITLE6=All Is Valid
TTITLE7=Oceans Of Emptyness
TTITLE8=Forests
EXTD=
EXTT0=
EXTT1=
EXTT2=
EXTT3=
EXTT4=
EXTT5=
EXTT6=
EXTT7=
EXTT8=
PLAYORDER=
